<svg version="1.2" xmlns="http://www.w3.org/2000/svg" viewBox="0 0 90 20" width="90" height="20">
	<title>youtube-logo-svg</title>
	<style>
		.s0 { fill: #ff0000 } 
		.s1 { fill: #ffffff } 
		.s2 { fill: #282828 } 
	</style>
	<g id="Layer">
		<path id="Layer" class="s0" d="m28.7 10c0 0 0 4.7-0.6 6.9-0.3 1.2-1.3 2.2-2.5 2.5-2.3 0.6-11.3 0.6-11.3 0.6 0 0-8.9 0-11.2-0.6-1.2-0.3-2.2-1.3-2.5-2.5-0.6-2.2-0.6-6.9-0.6-6.9 0 0 0-4.6 0.6-6.9 0.3-1.2 1.3-2.2 2.5-2.5 2.3-0.6 11.2-0.6 11.2-0.6 0 0 9 0 11.3 0.6 1.2 0.3 2.2 1.3 2.5 2.5 0.6 2.3 0.6 6.9 0.6 6.9z"/>
		<path id="Layer" class="s1" d="m11.5 5.7l7.4 4.3-7.4 4.3z"/>
	</g>
	<g id="Layer">
		<g id="Layer">
			<path id="Layer" fill-rule="evenodd" class="s2" d="m41.6 18.2q-0.8-0.5-1.2-1.8-0.3-1.2-0.3-3.2v-1.8q0-2 0.4-3.2 0.4-1.3 1.3-1.8 0.8-0.6 2.3-0.6 1.3 0 2.2 0.6 0.8 0.6 1.2 1.8 0.4 1.2 0.4 3.2v1.8q0 2-0.3 3.2-0.4 1.3-1.3 1.8-0.8 0.6-2.3 0.6-1.5 0-2.4-0.6zm3.2-2q0.3-0.6 0.3-2v-3.9q0-1.3-0.3-1.9c-0.1-0.5-0.4-0.7-0.8-0.7q-0.6 0-0.8 0.7-0.2 0.6-0.2 1.9v3.9q0 1.4 0.2 2 0.2 0.6 0.8 0.6 0.6 0.1 0.8-0.6z"/>
			<path id="Layer" fill-rule="evenodd" class="s2" d="m85.3 13.9q0 1.2 0 1.8 0.1 0.6 0.3 0.9 0.2 0.2 0.7 0.2 0.7 0 0.9-0.4 0.2-0.5 0.3-1.7l2.4 0.1q0 0.2 0 0.5 0 1.7-0.9 2.6-1 0.8-2.7 0.8-2.1 0-2.9-1.3-0.9-1.3-0.9-4v-2.2q0-2.8 0.9-4.1 0.9-1.3 3-1.3 1.4 0 2.2 0.5 0.8 0.5 1.1 1.7 0.3 1.1 0.3 3.1v2.1h-4.7zm0.3-5.9q-0.2 0.3-0.3 0.9 0 0.6 0 1.8v0.9h2v-0.9q0-1.2 0-1.8-0.1-0.7-0.3-0.9-0.3-0.3-0.7-0.3-0.5 0-0.7 0.3z"/>
			<path id="Layer" class="s2" d="m34.7 13l-3.2-11.6h2.8l1.2 5.3q0.4 1.9 0.6 3.3h0.1q0.1-1 0.6-3.3l1.2-5.3h2.8l-3.2 11.6v5.6h-2.8v-5.6z"/>
			<path id="Layer" class="s2" d="m57.1 6v12.6h-2.2l-0.3-1.5h-0.1q-0.9 1.7-2.7 1.7-1.2 0-1.8-0.8-0.6-0.8-0.6-2.6v-9.4h2.8v9.2q0 0.9 0.2 1.2 0.2 0.4 0.6 0.4 0.4 0 0.7-0.2 0.4-0.2 0.5-0.6v-10z"/>
			<path id="Layer" class="s2" d="m71.6 6v12.6h-2.2l-0.3-1.5q-0.9 1.7-2.7 1.7-1.3 0-1.9-0.8-0.6-0.8-0.6-2.6v-9.4h2.9v9.2q0 0.9 0.1 1.2 0.2 0.4 0.7 0.4 0.3 0 0.7-0.2 0.3-0.2 0.5-0.6v-10z"/>
			<path id="Layer" class="s2" d="m64.8 3.7h-2.8v14.9h-2.8v-14.9h-2.8v-2.3h8.4z"/>
			<path id="Layer" fill-rule="evenodd" class="s2" d="m81.2 11.4v1.9q0 2.8-0.6 4.2-0.7 1.3-2.2 1.3c-0.5 0-1-0.2-1.4-0.4q-0.7-0.4-1-1h-0.1l-0.3 1.2h-2.3v-17.8h2.7v6.6h0.1q0.3-0.7 1-1.2 0.7-0.4 1.5-0.4 1 0 1.5 0.5 0.6 0.6 0.9 1.7 0.2 1.2 0.2 3.4zm-2.8 1.8v-1.7q0-1.4-0.1-2.3-0.1-0.7-0.3-1.1-0.2-0.3-0.7-0.3-0.4 0-0.7 0.3-0.4 0.4-0.5 0.9v7.1q0.1 0.3 0.4 0.5 0.3 0.1 0.7 0.1 0.4 0 0.7-0.3 0.2-0.3 0.4-1.1 0.1-0.8 0.1-2.1z"/>
		</g>
	</g>
</svg>